<?xml version="1.0" standalone="no"?><!DOCTYPE svg PUBLIC "-//W3C//DTD SVG 1.1//EN" "http://www.w3.org/Graphics/SVG/1.1/DTD/svg11.dtd"><svg class="icon" width="200px" height="175.34px" viewBox="0 0 1168 1024" version="1.1" xmlns="http://www.w3.org/2000/svg"><path fill="#d81e06" d="M838.903248 0.000978a328.971305 328.971305 0 0 0-255.779593 125.3457A322.023964 322.023964 0 0 0 327.539762 0.000978 334.255199 334.255199 0 0 0 0.036204 339.050822a435.334128 435.334128 0 0 0 95.892885 253.137646 2316.693821 2316.693821 0 0 0 447.271814 417.916849 72.115363 72.115363 0 0 0 85.227248 0 2398.496323 2398.496323 0 0 0 447.271813-418.014699 453.142806 453.142806 0 0 0 93.153088-253.137646A334.744448 334.744448 0 0 0 838.903248 0.000978z"  /></svg>