<?xml version="1.0" standalone="no"?><!DOCTYPE svg PUBLIC "-//W3C//DTD SVG 1.1//EN" "http://www.w3.org/Graphics/SVG/1.1/DTD/svg11.dtd"><svg t="1698073115969" class="icon" viewBox="0 0 1024 1024" version="1.1" xmlns="http://www.w3.org/2000/svg" p-id="2285" xmlns:xlink="http://www.w3.org/1999/xlink" width="200" height="200"><path d="M0 0h1024v1024H0V0z" fill="#202425" opacity=".01" p-id="2286"></path><path d="M955.733333 512c0 245.077333-198.656 443.733333-443.733333 443.733333S68.266667 757.077333 68.266667 512 266.922667 68.266667 512 68.266667s443.733333 198.656 443.733333 443.733333z" fill="#11AA66" p-id="2287"></path><path d="M512 102.4C285.7984 102.4 102.4 285.7984 102.4 512s183.3984 409.6 409.6 409.6 409.6-183.3984 409.6-409.6S738.2016 102.4 512 102.4zM34.133333 512C34.133333 248.081067 248.081067 34.133333 512 34.133333s477.866667 213.947733 477.866667 477.866667-213.947733 477.866667-477.866667 477.866667S34.133333 775.918933 34.133333 512z" fill="#11AA66" p-id="2288"></path><path d="M787.114667 339.285333a51.2 51.2 0 0 1 0 72.362667l-307.2 307.2a51.2 51.2 0 0 1-72.362667 0l-170.666667-170.666667a51.2 51.2 0 0 1 72.362667-72.362666L443.733333 610.235733l271.018667-271.018666a51.2 51.2 0 0 1 72.362667 0z" fill="#FFFFFF" p-id="2289"></path></svg>