<?xml version="1.0"?>
<svg xmlns="http://www.w3.org/2000/svg" xmlns:xlink="http://www.w3.org/1999/xlink" id="&#x56FE;&#x5C42;_1" data-name="&#x56FE;&#x5C42; 1" viewBox="0 0 508.46 120">
  <defs>
    <style>
      .cls-1 {
        fill: url(#&#x672A;&#x547D;&#x540D;&#x7684;&#x6E10;&#x53D8;_30);
      }

      .cls-2 {
        fill: #4a6cb3;
      }

      .cls-3 {
        fill: #103a89;
      }

      .cls-4 {
        fill: url(#&#x672A;&#x547D;&#x540D;&#x7684;&#x6E10;&#x53D8;_26);
      }
    </style>
    <linearGradient id="&#x672A;&#x547D;&#x540D;&#x7684;&#x6E10;&#x53D8;_30" data-name="&#x672A;&#x547D;&#x540D;&#x7684;&#x6E10;&#x53D8; 30" y1="59.89" x2="119.48" y2="59.89" gradientUnits="userSpaceOnUse">
      <stop offset="0" stop-color="#4a6cb3"/>
      <stop offset="0.29" stop-color="#476bb1"/>
      <stop offset="0.5" stop-color="#3e66ad"/>
      <stop offset="0.69" stop-color="#2e5ea5"/>
      <stop offset="0.86" stop-color="#185399"/>
      <stop offset="1" stop-color="#00488d"/>
    </linearGradient>
    <linearGradient id="&#x672A;&#x547D;&#x540D;&#x7684;&#x6E10;&#x53D8;_26" data-name="&#x672A;&#x547D;&#x540D;&#x7684;&#x6E10;&#x53D8; 26" x1="41.87" y1="68.78" x2="103.56" y2="68.78" gradientUnits="userSpaceOnUse">
      <stop offset="0" stop-color="#6b95ce"/>
      <stop offset="1" stop-color="#4a6cb3"/>
    </linearGradient>
  </defs>
  <g>
    <path class="cls-1" d="M104.39,119.79a9.88,9.88,0,0,1-4-.87l-.16-.08-7.7-4a9.74,9.74,0,0,0-6.75-.85,20.72,20.72,0,0,0-3.39,1.13l-.15.06a57.76,57.76,0,0,1-24.8,4.27,62.1,62.1,0,0,1-39.65-17.35A57.94,57.94,0,0,1,.06,63,60.61,60.61,0,0,1,6,34a2.67,2.67,0,1,1,4.8,2.33A55.3,55.3,0,0,0,5.39,62.74c1.23,27.64,23.75,49.72,52.4,51.37a52.56,52.56,0,0,0,22.5-3.89,26.3,26.3,0,0,1,4.28-1.43A15,15,0,0,1,95,110.1l7.62,4a3.29,3.29,0,0,0,2.95.08,1.78,1.78,0,0,0,.61-1.6l-1.66-13.67a14.36,14.36,0,0,1,2.07-11.29c.07-.12.14-.23.19-.33A51.38,51.38,0,0,0,114,56.12C111.77,27.48,89,5.65,60.87,5.34A54.84,54.84,0,0,0,24.1,18.91a2.67,2.67,0,1,1-3.52-4A60.21,60.21,0,0,1,60.93,0c30.87.35,56,24.3,58.35,55.71A56.47,56.47,0,0,1,111.42,90c-.07.13-.16.27-.27.44a9.08,9.08,0,0,0-1.35,7.47l0,.25,1.7,14.12a7,7,0,0,1-2.93,6.32A7.47,7.47,0,0,1,104.39,119.79Z"/>
    <circle class="cls-2" cx="22.15" cy="47.69" r="5.2"/>
    <path class="cls-3" d="M48.55,51.46a6.08,6.08,0,0,1-1.54,0c-.54,0-1.07-.06-1.6-.12a22.17,22.17,0,0,1-3.15-.6,24.06,24.06,0,0,1-5.91-2.51l-.28-.17c-5-3-8.78-8.1-8.46-14.19.29-5.45,4.7-11.31,10.68-10.51a7.44,7.44,0,0,1,4.09,2,6.25,6.25,0,0,1,1.72,4.56,18.76,18.76,0,0,1-.57,4.47,30,30,0,0,0-.92,6.46,14.08,14.08,0,0,0,1.29,6.3,10.36,10.36,0,0,0,3.81,3.77Z"/>
    <path class="cls-4" d="M47.34,58.13c.93-1-.08-2,1.27-1.68a39.23,39.23,0,0,1,10.63,3.64c3.83,2,7.28,4.73,11.38,6.21a18.46,18.46,0,0,0,3.74.94c3.83.51,7.69-.38,11.53-.83a36,36,0,0,1,13.21.69c1.4.36,3.63.83,4.32,2.33.52,1.12-.57,2.82-.91,3.86-.19.59.53.45-.6,2.58-.75,1.4-4.1,5.44-5.67,5.29L59.77,77.6a3.76,3.76,0,0,1-1.52-.48l-14.37-8a3.92,3.92,0,0,1-1-6.05Z"/>
    <path class="cls-3" d="M19.82,81.72c-1.61-2.81-3.08-5.93-3.09-9.24,0-3.62,2.55-6.83,5.12-9.13a28.56,28.56,0,0,1,14.37-6.81c5.4-.89,11.78-1,16.88,1.21a32.83,32.83,0,0,1,8.81,6c3.88,3.51,7.37,7.48,11.68,10.43a31.37,31.37,0,0,0,17.72,5.45,13.35,13.35,0,0,0,8.46-2.88,9.24,9.24,0,0,0,1.81-1.94,13.29,13.29,0,0,0,2-4.84c.15,2.39-.79,5.32-1.62,7.52a44.14,44.14,0,0,1-3.36,6.83A52.1,52.1,0,0,1,86.92,97.8c-8.56,7.07-33.35,11.64-50.53.63C23.66,90.27,20.45,82.81,19.82,81.72Z"/>
  </g>
  <g>
    <path class="cls-3" d="M160.38,82l17.78-30.81-16.3-3.12,1.32-7.17,21.38,4,2.57,5.46L166.85,85.73Zm19,4.06L190.72,80l-1.95-51.25,7.33-.31,2,53.58-1.95,3.36-13.5,7.17Zm20.51-34.87,1.49-4.68,15.52-9.2,3.66,6.24L208,51.1,224,85l-6.63,3.12Z"/>
    <path class="cls-3" d="M254,87l8.19-27.69-10.61-6.71,3.9-6.24,13,8.27L270,58.74l-8.82,30.42Zm.23-50.86,4.37-6L270.67,39l-4.37,5.92Zm14.51,54.6,4.37-57.17,3.35-3.44,40.33-3.19.62,7.33-18.17,1.4,3.12,1.72-2.11,3.9,15.21-1,3.9,4.14L317,65.84,313.41,69l-11,.31.71,15.21-1.25,3-8.11,6.47-4.68-5.61,6.63-5.38-.63-13.58-7.64.16-3.82-3.74V60.53l-3.12.24L280,53.44l3.67-.32V45.87l3.43-3.74,4.6-.32L294.77,36l-14.66,1.09-4.06,54Zm9.44-1.87,7.56-16.46,6.71,3.12-7.64,16.38ZM291,52.5l17-1.4.55,7.33L291,59.91v2.34l19-.55,1.48-13.8L291,49.22ZM305.22,80l5.7-4.52L320,86.9l-5.85,4.44Z"/>
    <path class="cls-3" d="M346,74.42l17.78-23-16-3,1.25-7.17L371,45.17,373.32,51l-8.51,11,.08,2.34,2.26-2.27,9.21,9.29-5.15,5.14L365,70.36l.47,22.39-7.33.15-.47-21.52-5.77,7.48Zm8.65-40.8,4.92-5.53L369.73,37l-4.92,5.46Zm22.39,15.76,12.09-.7V31.44h7.41V48.21l11.7-.78.47,7.25-12.17.78v27l16.22.55-.23,7.33-41.65-1.4.15-7.34,18.1.63V55.93l-11.62.7Z"/>
    <path class="cls-3" d="M448.12,92.12l-4-3.58-1.56-55.77,3.74-3.83,52.34-.15v7.33l-48.59.16,1.32,48.2L502.72,80l.7,7.34Zm33.07-32.37,16.3,11.7-4.29,6L475.5,64.75,458.88,79.1l-4.76-5.54L469.33,60.3,454,49.22l4.29-5.92L475,55.39l17.86-15.53,4.76,5.62Z"/>
  </g>
</svg>
