<?xml version="1.0" standalone="no"?><!DOCTYPE svg PUBLIC "-//W3C//DTD SVG 1.1//EN" "http://www.w3.org/Graphics/SVG/1.1/DTD/svg11.dtd"><svg t="1698581387075" class="icon" viewBox="0 0 1024 1024" version="1.1" xmlns="http://www.w3.org/2000/svg" p-id="17149" xmlns:xlink="http://www.w3.org/1999/xlink" width="200" height="200"><path d="M936.250243 797.511788c-29.983153 36.040466-74.156021 64.490328-126.287915 64.490328H288.850353c-20.519551-1.26781-41.346303-9.454392-60.45826-21.964529-48.854011-28.298159-81.7152-81.11272-81.7152-141.593735a164.071348 164.071348 0 0 1 3.486476-33.699894 66.32215 66.32215 0 0 1 3.749791-14.52563C174.513439 583.425354 236.766138 534.885046 310.3744 534.885046h0.138159c-0.081812-2.349782-0.138159-4.706066-0.138159-7.075353 0-110.491767 89.647137-200.063052 200.232093-200.063052 99.887137 0 177.78157 61.200525 199.66483 158.465897 25.394116-12.323759 52.00728-17.544533 82.131301-17.544534 106.365968 0 192.587852 94.639272 192.587852 200.913135a191.599611 191.599611 0 0 1-48.740233 127.930649z m-27.24165-22.09456c-27.225397 31.310561-67.34019 56.022011-114.682582 56.02201H312.037181c-18.634091-1.099852-37.546667-8.208254-54.902654-19.076741-44.364665-24.586836-65.309528-52.928339-70.809871-107.124486-1.787937-17.635556 2.227877-35.70455 4.298633-45.153524a55.534392 55.534392 0 0 1 3.405206-12.61308c18.705067-58.021249 76.331886-87.20254 143.175247-87.202539h0.125697a169.182138 169.182138 0 0 1-0.125697-6.149418c0-95.980766 66.180199-196.093291 172.551043-195.244292 105.997545 0.845748 168.689101 89.595666 182.391196 172.613892 23.058963-10.704863 53.036698-28.528965 94.023788-28.297075 93.108148 0.526629 162.566772 68.77975 162.566773 161.096872 0.002167 42.666667-12.199145 81.589503-39.727949 111.128381z" fill="#1296db" p-id="17150"></path><path d="M936.250243 797.511788c-29.983153 36.040466-74.156021 64.490328-126.287915 64.490328H288.850353c-20.519551-1.26781-41.346303-9.454392-60.45826-21.964529-48.854011-28.298159-81.7152-81.11272-81.7152-141.593735a164.071348 164.071348 0 0 1 3.486476-33.699894 66.32215 66.32215 0 0 1 3.749791-14.52563c19.453291-63.081651 76.068571-109.876825 144.305981-114.88088C233.045604 521.136356 184.227352 462.963945 184.227352 393.346032c0-80.25451 64.871754-145.314269 144.894375-145.314269 58.88596 0 109.564207 35.232102 132.228741 85.820952q4.727738-1.194667 9.543788-2.161236C391.511501 349.972859 311.534392 433.150916 311.534392 522.29418a139.418413 139.418413 0 0 0 5.337803 38.906582c-57.969778 5.390899-106.063644 34.225439-122.841533 86.270645a55.534392 55.534392 0 0 0-3.405206 12.61308c-2.070756 9.448974-6.087653 27.517968-4.298633 45.153524 5.498176 54.196148 26.443039 82.537651 70.807704 107.124486 17.355987 10.868487 36.268563 17.976889 54.902654 19.076741h482.28883c47.342392 0 87.457185-24.71145 114.682582-56.02201 27.528804-29.538878 39.730116-68.461714 39.730116-111.128381 0-92.317122-69.458624-160.570243-162.566772-161.096872-40.98709-0.23189-70.964825 17.592212-94.023789 28.297075-10.109968-61.27746-46.919788-125.664847-108.126815-155.534222-25.979259-30.847865-61.127382-50.423602-100.282649-46.41104a201.804394 201.804394 0 0 1 26.867809-1.796063c99.887137 0 177.78157 61.200525 199.66483 158.465896 25.394116-12.323759 52.00728-17.544533 82.131301-17.544533 106.365968 0 192.587852 94.639272 192.587852 200.913134a191.599611 191.599611 0 0 1-48.740233 127.929566z m-500.026243-455.493621C417.030231 302.147725 376.299953 274.637884 329.155319 274.637884c-65.611852 0-118.798629 53.282675-118.798629 119.011013 0 59.564292 43.681456 108.908089 100.702002 117.639179C317.363606 434.251852 367.345101 369.572978 436.222916 342.018167z" fill="#1296db" p-id="17151"></path><path d="M330.515776 132.740741a10.606798 10.606798 0 0 1 10.606798 10.606798v77.811538a10.606798 10.606798 0 1 1-21.213596 0V143.347539A10.606798 10.606798 0 0 1 330.515776 132.740741zM209.014112 270.574392a10.609507 10.609507 0 0 1-15.000787 15.00783L139.025608 230.566332a10.609507 10.609507 0 0 1 15.000246-15.00783m54.978506 294.727788l0.00596 0.00596a11.825304 11.825304 0 0 1 0 16.717206l-53.277799 53.305973a11.811217 11.811217 0 0 1-16.708538 0l-0.00596-0.005418a11.828554 11.828554 0 0 1 0-16.719916l53.277799-53.303805a11.811217 11.811217 0 0 1 16.710163 0z m243.619352-239.669638a10.611132 10.611132 0 0 0 15.002955 15.012165l54.983923-55.028893a10.611132 10.611132 0 1 0-14.999161-15.012165M76.711687 382.582112h77.874929a10.612216 10.612216 0 0 1 0 21.224432H76.711687a10.612216 10.612216 0 0 1 0-21.224432z" fill="#1296db" p-id="17152"></path></svg>