<?xml version="1.0" standalone="no"?><!DOCTYPE svg PUBLIC "-//W3C//DTD SVG 1.1//EN" "http://www.w3.org/Graphics/SVG/1.1/DTD/svg11.dtd"><svg class="icon" width="200px" height="200.00px" viewBox="0 0 1024 1024" version="1.1" xmlns="http://www.w3.org/2000/svg"><path fill="#f7a24c" d="M582.899249 46.014993l97.021878 204.987516c11.519748 24.319468 33.791261 41.1511 59.518698 45.055015l216.763258 32.767283c64.89458 9.855784 90.750015 92.989966 43.775042 140.732921l-156.860568 159.484512a84.670148 84.670148 0 0 0-22.719503 73.022402l37.055189 225.275072c11.071758 67.390526-56.766758 118.781402-114.74949 86.974098l-193.915758-106.301675a76.158334 76.158334 0 0 0-73.59839 0l-193.915758 106.301675c-57.982732 31.807304-125.821248-19.583572-114.74949-87.038096l37.05519-225.211074a84.670148 84.670148 0 0 0-22.719503-72.958404L23.999475 469.621727c-46.974972-47.742956-21.119538-130.877137 43.775042-140.732921l216.763259-32.767284c25.727437-3.903915 47.99895-20.799545 59.518698-45.119013L441.206349 46.078992a77.566303 77.566303 0 0 1 141.6929 0z"  /></svg>